<?xml version="1.0" encoding="UTF-8" standalone="no"?>
<svg
   xmlns:dc="http://purl.org/dc/elements/1.1/"
   xmlns:cc="http://creativecommons.org/ns#"
   xmlns:rdf="http://www.w3.org/1999/02/22-rdf-syntax-ns#"
   xmlns:svg="http://www.w3.org/2000/svg"
   xmlns="http://www.w3.org/2000/svg"
   viewBox="0 0 800 640"
   height="640"
   width="800"
   xml:space="preserve"
   id="svg2"
   version="1.1"><metadata
     id="metadata8"><rdf:RDF><cc:Work
         rdf:about=""><dc:format>image/svg+xml</dc:format><dc:type
           rdf:resource="http://purl.org/dc/dcmitype/StillImage" /></cc:Work></rdf:RDF></metadata><defs
     id="defs6" /><g
     transform="matrix(1.3333333,0,0,1.3333333,0,1.6e-5)"
     id="g10"><path
       id="path12"
       style="fill:#ffffff;fill-opacity:1;fill-rule:nonzero;stroke:none"
       d="M 600,0 V 480 H 0 V 0 Z" /><path
       id="path14"
       style="fill:#000000;fill-opacity:1;fill-rule:nonzero;stroke:none"
       d="m 299.99,99.28 c 62.55,-0.01 95.27,-0.01 98.14,0 0.2,0 0.39,0.09 0.52,0.24 l 27.22,33.12 c 0.22,0.27 0.56,0.43 0.91,0.43 h 30.35 c 0.19,0 0.35,0.16 0.35,0.35 v 95.31 c 0,0.19 -0.15,0.34 -0.34,0.34 h -34.58 c -0.37,0 -0.72,-0.15 -0.98,-0.41 l -29.65,-29.65 c -0.31,-0.3 -0.72,-0.47 -1.15,-0.47 -2.01,0 -32.28,0 -90.79,0 -58.51,0 -88.77,0 -90.79,0 -0.43,0.01 -0.84,0.18 -1.15,0.48 l -29.65,29.65 c -0.25,0.26 -0.61,0.41 -0.98,0.41 h -34.58 c -0.18,0 -0.34,-0.15 -0.34,-0.34 v -95.31 c 0,-0.19 0.15,-0.35 0.35,-0.35 h 30.35 c 0.35,0 0.68,-0.16 0.91,-0.43 l 27.21,-33.12 c 0.13,-0.15 0.32,-0.24 0.52,-0.24 2.87,-0.01 35.59,-0.01 98.15,-0.01 z" /><path
       id="path16"
       style="fill:#ffffff;fill-opacity:1;fill-rule:nonzero;stroke:none"
       d="m 294.8,163.68 h -85.99 c -0.1,0 -0.2,-0.04 -0.27,-0.11 l -25.75,-25.75 c -0.13,-0.13 -0.15,-0.36 -0.02,-0.51 l 23.22,-28.24 c 0.07,-0.09 0.18,-0.14 0.29,-0.14 h 88.52 c 0.21,0 0.38,0.17 0.38,0.38 v 53.99 c 0,0.21 -0.17,0.38 -0.38,0.38 z" /><path
       id="path18"
       style="fill:#ffffff;fill-opacity:1;fill-rule:nonzero;stroke:none"
       d="m 305.5,108.92 h 87.79 c 0.4,0 0.78,0.18 1.03,0.49 l 22.75,27.69 c 0.22,0.27 0.2,0.67 -0.05,0.93 l -25.25,25.25 c -0.25,0.25 -0.6,0.4 -0.95,0.4 l -85.62,-0.01 c -0.2,0 -0.37,-0.16 -0.37,-0.36 l -0.01,-53.71 c 0,-0.38 0.31,-0.68 0.68,-0.68 z" /><path
       id="path20"
       style="fill:#ffffff;fill-opacity:1;fill-rule:nonzero;stroke:none"
       d="m 300,173.22 c 13.55,0 45.17,0 94.87,0.01 0.35,0 0.69,-0.14 0.94,-0.39 l 29.78,-29.78 c 0.25,-0.26 0.59,-0.4 0.95,-0.4 h 20.6 c 0.36,0 0.66,0.27 0.7,0.62 0.01,0.1 0.02,12.68 0.02,37.75 0,25.07 -0.01,37.65 -0.02,37.74 -0.04,0.36 -0.34,0.63 -0.7,0.63 h -20.6 c -0.36,0 -0.7,-0.14 -0.95,-0.4 l -29.78,-29.78 c -0.25,-0.25 -0.59,-0.39 -0.94,-0.39 -49.7,0 -81.32,0 -94.87,0 -13.54,0 -45.17,0 -94.86,0 -0.35,0 -0.69,0.14 -0.94,0.39 L 174.42,219 c -0.25,0.26 -0.59,0.4 -0.95,0.4 h -20.6 c -0.36,0 -0.66,-0.27 -0.7,-0.63 -0.01,-0.09 -0.02,-12.67 -0.02,-37.74 0,-25.07 0.01,-37.65 0.02,-37.75 0.04,-0.36 0.34,-0.63 0.7,-0.63 h 20.6 c 0.36,0 0.7,0.15 0.95,0.4 l 29.78,29.79 c 0.25,0.24 0.59,0.39 0.94,0.39 49.69,-0.01 81.32,-0.01 94.86,-0.01 z" /><path
       id="path22"
       style="fill:#000000;fill-opacity:1;fill-rule:nonzero;stroke:none"
       d="m 104.49,294.34 5.94,-37.35 c 0.08,-0.5 0.51,-0.86 1.02,-0.86 h 10.65 c 0.41,0 0.76,0.3 0.83,0.7 l 6.07,37.65 c 0.05,0.34 0.5,0.42 0.67,0.13 l 0.22,-0.37 c 0.02,-0.04 0.03,-0.08 0.04,-0.13 0.24,-3.51 0.47,-5.93 0.68,-7.24 1.5,-9.29 3.12,-19.45 4.87,-30.48 0.03,-0.15 0.16,-0.26 0.31,-0.26 h 9.23 c 0.11,0 0.2,0.09 0.18,0.2 l -8.66,54.47 c -0.11,0.69 -0.7,1.2 -1.4,1.2 h -11.07 c -0.47,0 -0.87,-0.33 -0.94,-0.79 l -6.05,-37.58 c -0.03,-0.19 -0.2,-0.33 -0.39,-0.33 -0.2,0 -0.36,0.15 -0.39,0.34 l -6.01,37.77 c -0.06,0.36 -0.36,0.62 -0.72,0.62 H 98 c -0.44,0 -0.82,-0.32 -0.89,-0.76 l -8.84,-54.85 c -0.03,-0.15 0.09,-0.29 0.25,-0.29 h 9.15 c 0.15,0 0.28,0.11 0.3,0.25 l 6.12,37.96 c 0.02,0.1 0.1,0.17 0.2,0.17 0.1,0 0.18,-0.07 0.2,-0.17 z" /><path
       id="path24"
       style="fill:#000000;fill-opacity:1;fill-rule:nonzero;stroke:none"
       d="m 165.35,303.25 c 1.7,0 3.45,-0.05 5.26,-0.14 0.52,-0.03 0.94,-0.47 0.94,-1 v -45.63 c 0,-0.2 0.16,-0.36 0.36,-0.36 h 8.57 c 0.19,0 0.35,0.16 0.35,0.36 -0.03,12.75 0,28.75 0.1,47.99 0.03,5.15 -2.62,7.68 -7.93,7.59 -2.54,-0.04 -5.09,-0.06 -7.64,-0.06 -2.56,0 -5.11,0.02 -7.65,0.07 -5.31,0.1 -7.96,-2.43 -7.94,-7.59 0.09,-19.24 0.11,-35.23 0.06,-47.99 0,-0.19 0.16,-0.36 0.35,-0.36 h 8.57 c 0.2,0 0.36,0.16 0.36,0.36 l 0.04,45.63 c 0,0.53 0.42,0.97 0.95,0.99 1.81,0.09 3.56,0.14 5.25,0.14 z" /><path
       id="path26"
       style="fill:#000000;fill-opacity:1;fill-rule:nonzero;stroke:none"
       d="m 214.84,256.59 v 7.71 c 0,0.24 -0.19,0.43 -0.43,0.43 h -16.94 c -0.65,0 -1.18,0.53 -1.18,1.18 v 12.67 c 0,0.6 0.48,1.08 1.08,1.09 4.04,0.07 7.77,0.08 11.19,0.04 5.35,-0.07 7.84,2.2 7.84,7.3 0,4.86 0.06,10.41 0.19,16.65 0.09,4.12 -1.34,7.74 -5.56,8.05 -3.87,0.29 -11.74,0.37 -23.62,0.22 -0.35,0 -0.63,-0.28 -0.63,-0.63 v -7.52 c 0,-0.29 0.23,-0.53 0.52,-0.53 h 18.2 c 0.87,0 1.57,-0.7 1.57,-1.57 v -12.06 c 0,-0.67 -0.53,-1.21 -1.2,-1.23 -3.75,-0.09 -7.03,-0.09 -9.82,-0.02 -5.33,0.14 -9.12,-1.22 -9.08,-6.87 0.03,-4.98 0.02,-10.76 -0.01,-17.33 -0.02,-5.23 1.86,-8.04 7.05,-8.04 5.92,0 12.71,0 20.37,0 0.25,0 0.46,0.21 0.46,0.46 z" /><path
       id="path28"
       style="fill:#000000;fill-opacity:1;fill-rule:nonzero;stroke:none"
       d="m 232.08,292.3 v 18.77 c 0,0.52 -0.42,0.94 -0.94,0.94 h -7.76 c -0.44,0 -0.8,-0.36 -0.8,-0.8 v -54.79 c 0,-0.17 0.13,-0.3 0.3,-0.3 13.53,0.02 21.33,0.01 23.38,-0.02 5.67,-0.08 7.43,3.28 7.35,8.7 -0.11,7.83 -0.11,13.81 0,17.96 0.13,4.98 -1.29,9.04 -6.6,9.05 -6.48,0 -11.28,-0.01 -14.41,-0.03 -0.29,0 -0.52,0.23 -0.52,0.52 z" /><path
       id="path30"
       style="fill:#000000;fill-opacity:1;fill-rule:nonzero;stroke:none"
       d="m 290.67,256.49 c 0,-0.2 0.16,-0.36 0.36,-0.36 h 8.55 c 0.2,0 0.36,0.16 0.36,0.36 0.01,32.11 0.01,48.52 -0.02,49.23 -0.17,5.13 -3.88,6.37 -8.61,6.25 -2.98,-0.08 -6.18,-0.09 -9.6,-0.02 -0.18,0.01 -0.33,-0.14 -0.33,-0.32 v -8 c 0,-0.17 0.13,-0.3 0.3,-0.3 h 7.59 c 0.77,0 1.4,-0.62 1.4,-1.39 z" /><path
       id="path32"
       style="fill:#000000;fill-opacity:1;fill-rule:nonzero;stroke:none"
       d="m 323.91,256.13 c 1.85,0 3.67,0.01 5.45,0.03 0.22,0 0.41,0.15 0.46,0.36 l 13.33,54.99 c 0.05,0.22 -0.12,0.43 -0.34,0.43 h -8.85 c -0.15,0 -0.28,-0.1 -0.32,-0.25 l -2.82,-11.54 c -0.07,-0.31 -0.33,-0.54 -0.64,-0.6 -0.04,0 -2.13,-0.01 -6.28,-0.01 -4.14,0 -6.24,0.01 -6.27,0.01 -0.32,0.05 -0.57,0.29 -0.65,0.6 l -2.82,11.54 c -0.04,0.15 -0.17,0.25 -0.32,0.25 h -8.85 c -0.22,0 -0.39,-0.21 -0.34,-0.43 l 13.34,-54.99 c 0.06,-0.21 0.24,-0.36 0.46,-0.36 1.79,-0.02 3.6,-0.03 5.46,-0.03 z" /><path
       id="path34"
       style="fill:#000000;fill-opacity:1;fill-rule:nonzero;stroke:none"
       d="m 369.7,288.35 c -0.19,0 -0.31,0.19 -0.23,0.36 l 10.91,23.02 c 0.05,0.09 -0.02,0.2 -0.12,0.2 h -9.84 c -0.17,0 -0.32,-0.1 -0.39,-0.25 l -10.86,-22.91 c -0.47,-0.99 -1.95,-0.66 -1.95,0.43 v 22.43 c 0,0.17 -0.13,0.3 -0.3,0.3 h -8.71 c -0.15,0 -0.28,-0.13 -0.28,-0.28 v -55.08 c 0,-0.25 0.2,-0.45 0.45,-0.45 13.89,0.01 20.95,0.01 21.19,0 5.44,-0.28 9.56,1.32 9.36,7.14 -0.01,0.46 -0.02,6.27 -0.01,17.43 0.01,6.57 -3.29,7.67 -9.22,7.66 z" /><path
       id="path36"
       style="fill:#000000;fill-opacity:1;fill-rule:nonzero;stroke:none"
       d="M 448.13,264.73 H 432.8 c -0.72,0 -1.3,0.58 -1.3,1.3 v 35.81 c 0,0.74 0.6,1.34 1.34,1.34 h 16.24 c 0.53,0 0.96,0.43 0.96,0.96 v 7.02 c 0,0.5 -0.41,0.9 -0.91,0.88 -6.76,-0.25 -13.98,0.3 -21.1,-0.17 -4.1,-0.27 -6.04,-4.04 -5.99,-7.62 0.19,-13.2 0.23,-26.46 0.13,-39.77 -0.03,-5.39 1.7,-8.36 7.15,-8.35 5.13,0 11.4,0 18.81,0 0.2,0 0.37,0.17 0.37,0.37 v 7.86 c 0,0.2 -0.17,0.37 -0.37,0.37 z" /><path
       id="path38"
       style="fill:#000000;fill-opacity:1;fill-rule:nonzero;stroke:none"
       d="m 468.6021,311.4782 c -0.002,0.2718 -0.2221,0.5018 -0.5008,0.4991 l -8.44,-0.0147 C 459.39,311.96 459.16,311.74 459.1622,311.4617 l 0.0957,-54.8399 c 0.002,-0.2718 0.2221,-0.5018 0.5008,-0.4991 l 8.44,0.0147 c 0.2713,0.003 0.5013,0.2226 0.4991,0.5009 z" /><path
       id="path40"
       style="fill:#000000;fill-opacity:1;fill-rule:nonzero;stroke:none"
       d="m 489.8,285.73 c -0.56,-1.38 -1.32,-3.29 -2.3,-5.75 -0.08,-0.2 -0.38,-0.14 -0.38,0.07 v 31.49 c 0,0.24 -0.19,0.42 -0.42,0.42 h -8.44 c -0.19,0 -0.35,-0.15 -0.35,-0.35 v -54.75 c 0,-0.43 0.36,-0.79 0.79,-0.79 l 8.8,0.04 c 0.27,0 0.5,0.18 0.58,0.43 0.05,0.12 3.53,8.72 10.43,25.8 0.56,1.38 1.32,3.3 2.3,5.75 0.08,0.2 0.38,0.15 0.38,-0.07 v -31.49 c 0,-0.23 0.19,-0.42 0.42,-0.42 h 8.44 c 0.19,0 0.35,0.16 0.35,0.35 v 54.75 c 0,0.44 -0.35,0.79 -0.79,0.79 l -8.8,-0.04 c -0.27,0 -0.5,-0.17 -0.58,-0.43 -0.05,-0.11 -3.52,-8.71 -10.43,-25.8 z" /><path
       id="path42"
       style="fill:#000000;fill-opacity:1;fill-rule:nonzero;stroke:none"
       d="m 416.1,305.65 c 0,3.48 -2.82,6.3 -6.3,6.3 h -18.44 c -3.48,0 -6.3,-2.82 -6.3,-6.3 v -43.22 c 0,-3.48 2.82,-6.3 6.3,-6.3 h 18.44 c 3.48,0 6.3,2.82 6.3,6.3 z" /><path
       id="path44"
       style="fill:#ffffff;fill-opacity:1;fill-rule:nonzero;stroke:none"
       d="m 244.22,282.48 c 0,0.39 -0.31,0.7 -0.7,0.7 h -10.98 c -0.39,0 -0.7,-0.31 -0.7,-0.7 v -17.04 c 0,-0.39 0.31,-0.7 0.7,-0.7 h 10.98 c 0.39,0 0.7,0.31 0.7,0.7 z" /><path
       id="path46"
       style="fill:#ffffff;fill-opacity:1;fill-rule:nonzero;stroke:none"
       d="m 369.61,278.82 c 0,0.5 -0.4,0.9 -0.9,0.9 h -10.6 c -0.5,0 -0.9,-0.4 -0.9,-0.9 v -13.18 c 0,-0.5 0.4,-0.9 0.9,-0.9 h 10.6 c 0.5,0 0.9,0.4 0.9,0.9 z" /><path
       id="path48"
       style="fill:#ffffff;fill-opacity:1;fill-rule:nonzero;stroke:none"
       d="m 406.8413,301.9591 c -10e-4,0.7409 -0.6013,1.3409 -1.3377,1.3423 l -9.7799,0.0171 c -0.7437,0.002 -1.3437,-0.5985 -1.3424,-1.3377 l -0.0626,-35.8799 c 0.001,-0.7409 0.6013,-1.3409 1.3377,-1.3423 l 9.7799,-0.0171 c 0.7437,-10e-4 1.3437,0.5985 1.3424,1.3377 z" /><path
       id="path50"
       style="fill:#ffffff;fill-opacity:1;fill-rule:nonzero;stroke:none"
       d="m 323.91,272.03 c 0.01,0 0.04,0.01 0.08,0.03 0.06,0.01 0.11,0.05 0.12,0.1 l 4.38,18.09 c 0.07,0.32 -0.14,0.64 -0.47,0.68 -0.37,0.05 -1.75,0.07 -4.12,0.07 -2.37,0 -3.74,-0.03 -4.12,-0.08 -0.32,-0.04 -0.54,-0.35 -0.46,-0.67 l 4.38,-18.09 c 0.01,-0.05 0.06,-0.09 0.12,-0.1 0.04,-0.02 0.07,-0.03 0.09,-0.03 z" /><path
       id="path52"
       style="fill:#000000;fill-opacity:1;fill-rule:nonzero;stroke:none"
       d="m 182.67,360.82 c 0,2.42 -1.97,4.39 -4.39,4.39 h -13.3 c -2.42,0 -4.39,-1.97 -4.39,-4.39 v -30.96 c 0,-2.42 1.97,-4.39 4.39,-4.39 h 13.3 c 2.42,0 4.39,1.97 4.39,4.39 z" /><path
       id="path54"
       style="fill:#000000;fill-opacity:1;fill-rule:nonzero;stroke:none"
       d="m 187.08,325.8 c 0,-0.19 0.16,-0.35 0.35,-0.35 h 17 c 2.62,0 4.75,2.25 4.75,5.02 v 29.74 c 0,2.77 -2.13,5.02 -4.75,5.02 h -17 c -0.19,0 -0.35,-0.16 -0.35,-0.35 z" /><path
       id="path56"
       style="fill:#000000;fill-opacity:1;fill-rule:nonzero;stroke:none"
       d="m 233.1,332.7 -3.6,1.71 c -0.23,0.11 -0.5,-0.06 -0.5,-0.32 v -4.8 c 0,-0.36 0.16,-0.71 0.43,-0.94 2.91,-2.5 6.26,-3.44 10.05,-2.82 0.31,0.05 0.53,0.32 0.53,0.63 v 38.7 c 0,0.18 -0.15,0.33 -0.34,0.33 h -5.92 c -0.2,0 -0.36,-0.16 -0.36,-0.35 v -31.96 c 0,-0.15 -0.16,-0.24 -0.29,-0.18 z" /><path
       id="path58"
       style="fill:#000000;fill-opacity:1;fill-rule:nonzero;stroke:none"
       d="m 259.93,349.63 c 0,-0.2 -0.25,-0.3 -0.39,-0.16 l -1.06,1.05 c -0.19,0.2 -0.46,0.3 -0.75,0.3 -0.33,-0.02 -2.74,0.01 -7.24,0.09 -3.79,0.06 -6.08,-1.21 -6.06,-5.21 0.02,-4.04 0.04,-9.44 0.05,-16.2 0,-0.23 0.03,-0.45 0.1,-0.66 0.61,-2.19 1.97,-3.29 4.09,-3.31 7.3,-0.08 11.69,-0.1 13.18,-0.06 3.74,0.08 4.73,2.41 4.72,5.95 -0.04,9.55 -0.05,19.22 -0.02,29.01 0,2.34 -1.07,3.89 -3.22,4.66 -0.22,0.08 -0.44,0.11 -0.65,0.11 h -17.79 c -0.24,0 -0.43,-0.19 -0.43,-0.43 v -5.26 c 0,-0.23 0.18,-0.41 0.41,-0.41 h 14.29 c 0.42,0 0.77,-0.34 0.77,-0.76 z" /><path
       id="path60"
       style="fill:#000000;fill-opacity:1;fill-rule:nonzero;stroke:none"
       d="m 277.82,331.6 c -0.14,0 -0.26,0.12 -0.26,0.27 v 7.63 c 0,0.16 0.12,0.28 0.28,0.29 2.51,0.02 5.56,0.02 9.15,0.01 4,-0.02 4.96,2.49 4.93,6.25 -0.05,7.67 -0.05,12.33 0,13.96 0.12,3.99 -2.06,5.27 -6.03,5.22 -4.71,-0.06 -9.53,-0.07 -14.48,-0.02 -0.27,0 -0.48,-0.21 -0.48,-0.48 v -5.14 c 0,-0.25 0.21,-0.46 0.46,-0.46 h 13.03 c 0.47,0 0.86,-0.39 0.86,-0.86 V 346.6 c 0,-0.37 -0.3,-0.67 -0.68,-0.67 h -13.08 c -0.33,0 -0.6,-0.27 -0.6,-0.6 v -19.3 c 0,-0.31 0.26,-0.57 0.58,-0.57 h 19.96 c 0.24,0 0.44,0.2 0.44,0.44 v 5.25 c 0,0.25 -0.2,0.45 -0.45,0.45 z" /><path
       id="path62"
       style="fill:#000000;fill-opacity:1;fill-rule:nonzero;stroke:none"
       d="m 303.3,341.21 1.05,-1.05 c 0.2,-0.2 0.47,-0.31 0.75,-0.3 0.33,0.01 2.75,-0.02 7.24,-0.09 3.79,-0.06 6.08,1.21 6.06,5.21 -0.02,4.03 -0.04,9.43 -0.05,16.19 0,0.23 -0.03,0.45 -0.1,0.66 -0.61,2.19 -1.97,3.29 -4.09,3.31 -7.29,0.07 -11.68,0.09 -13.17,0.06 -3.74,-0.08 -4.73,-2.41 -4.72,-5.95 0.04,-9.55 0.05,-19.21 0.02,-29 -0.01,-2.33 1.07,-3.89 3.22,-4.66 0.21,-0.07 0.43,-0.11 0.65,-0.11 h 17.78 c 0.24,0 0.43,0.19 0.43,0.43 v 5.26 c 0,0.23 -0.18,0.41 -0.41,0.41 h -14.29 c -0.42,0 -0.76,0.34 -0.76,0.76 v 8.71 c 0,0.2 0.24,0.3 0.39,0.16 z" /><path
       id="path64"
       style="fill:#000000;fill-opacity:1;fill-rule:nonzero;stroke:none"
       d="m 361.28,364.96 c 0.05,0.11 -0.03,0.23 -0.15,0.23 h -6.79 c -0.18,0 -0.35,-0.1 -0.43,-0.27 l -7.67,-16.18 c -0.34,-0.71 -1.4,-0.47 -1.4,0.31 v 15.73 c 0,0.23 -0.18,0.41 -0.41,0.41 h -5.83 c -0.21,0 -0.38,-0.17 -0.38,-0.39 v -39.07 c 0,-0.16 0.13,-0.29 0.28,-0.29 7.38,0.04 12.59,0.03 15.64,-0.03 3.85,-0.08 6.25,1.31 6.21,5.33 -0.06,6.17 -0.06,9.87 -0.01,11.1 0.18,4.69 -1.34,6.78 -6.17,6.55 -0.34,-0.01 -0.58,0.34 -0.43,0.65 z" /><path
       id="path66"
       style="fill:#000000;fill-opacity:1;fill-rule:nonzero;stroke:none"
       d="m 386.78,360.81 c 0,2.43 -1.97,4.4 -4.4,4.4 h -13.3 c -2.43,0 -4.4,-1.97 -4.4,-4.4 v -30.94 c 0,-2.43 1.97,-4.4 4.4,-4.4 h 13.3 c 2.43,0 4.4,1.97 4.4,4.4 z" /><path
       id="path68"
       style="fill:#000000;fill-opacity:1;fill-rule:nonzero;stroke:none"
       d="m 405.07,345.34 c 0,0.16 0.03,0.31 0.09,0.44 3.05,6.43 6.07,12.84 9.08,19.23 0.04,0.09 -0.03,0.19 -0.13,0.19 h -6.86 c -0.16,0 -0.31,-0.09 -0.38,-0.24 l -7.55,-15.92 c -0.07,-0.16 -0.19,-0.3 -0.33,-0.4 -0.25,-0.17 -0.44,-0.27 -0.56,-0.3 -0.34,-0.05 -0.64,0.2 -0.64,0.54 v 15.74 c 0,0.33 -0.26,0.59 -0.58,0.59 h -5.29 c -0.39,0 -0.71,-0.3 -0.73,-0.69 -0.02,-0.56 -0.03,-6.95 -0.03,-19.19 0,-12.24 0.02,-18.63 0.05,-19.19 0.02,-0.39 0.34,-0.69 0.73,-0.69 h 5.29 c 0.32,0.01 0.58,0.27 0.57,0.6 l -0.01,15.74 c 0,0.33 0.31,0.59 0.64,0.54 0.12,-0.03 0.31,-0.13 0.56,-0.3 0.15,-0.11 0.26,-0.25 0.33,-0.4 l 7.57,-15.92 c 0.06,-0.14 0.21,-0.24 0.38,-0.24 l 6.86,0.01 c 0.1,0 0.17,0.1 0.13,0.19 -3.02,6.39 -6.05,12.8 -9.1,19.22 -0.06,0.13 -0.09,0.28 -0.09,0.45 z" /><path
       id="path70"
       style="fill:#000000;fill-opacity:1;fill-rule:nonzero;stroke:none"
       d="m 428.67,359.13 c 1.49,0 2.76,-0.04 3.82,-0.11 0.34,-0.02 0.6,-0.3 0.6,-0.63 v -32.53 c 0,-0.22 0.18,-0.4 0.4,-0.4 h 5.81 c 0.22,0 0.4,0.18 0.4,0.4 v 35.55 c 0,0.17 -0.03,0.33 -0.09,0.48 -1.78,4.53 -5.88,3.3 -10.94,3.3 -5.07,0 -9.17,1.23 -10.95,-3.3 -0.06,-0.15 -0.09,-0.32 -0.09,-0.48 l 0.01,-35.55 c 0,-0.22 0.18,-0.4 0.4,-0.4 h 5.81 c 0.22,0 0.4,0.18 0.4,0.4 l -0.01,32.53 c 0,0.33 0.26,0.61 0.6,0.63 1.06,0.07 2.34,0.11 3.83,0.11 z" /><path
       id="path72"
       style="fill:#ffffff;fill-opacity:1;fill-rule:nonzero;stroke:none"
       d="m 176.07,358.21 c 0,0.5 -0.41,0.91 -0.91,0.91 h -7.04 c -0.5,0 -0.91,-0.41 -0.91,-0.91 v -25.7 c 0,-0.5 0.41,-0.91 0.91,-0.91 h 7.04 c 0.5,0 0.91,0.41 0.91,0.91 z" /><path
       id="path74"
       style="fill:#ffffff;fill-opacity:1;fill-rule:nonzero;stroke:none"
       d="m 202.54,358.49 c 0,0.35 -0.29,0.64 -0.64,0.64 h -7.58 c -0.35,0 -0.64,-0.29 -0.64,-0.64 v -26.24 c 0,-0.35 0.29,-0.64 0.64,-0.64 h 7.58 c 0.35,0 0.64,0.29 0.64,0.64 z" /><path
       id="path76"
       style="fill:#ffffff;fill-opacity:1;fill-rule:nonzero;stroke:none"
       d="m 259.91,343.84 c 0,0.49 -0.39,0.88 -0.88,0.88 h -7.06 c -0.49,0 -0.88,-0.39 -0.88,-0.88 V 332.5 c 0,-0.49 0.39,-0.88 0.88,-0.88 h 7.06 c 0.49,0 0.88,0.39 0.88,0.88 z" /><path
       id="path78"
       style="fill:#ffffff;fill-opacity:1;fill-rule:nonzero;stroke:none"
       d="m 353.6517,341.6977 c -0.002,0.3123 -0.2517,0.5723 -0.571,0.569 l -7.68,-0.0134 C 345.09,342.25 344.83,342 344.8317,341.6823 l 0.0166,-9.52 c 0.002,-0.3123 0.2517,-0.5723 0.571,-0.569 l 7.68,0.0134 c 0.3107,0.003 0.5707,0.2533 0.569,0.571 z" /><path
       id="path80"
       style="fill:#ffffff;fill-opacity:1;fill-rule:nonzero;stroke:none"
       d="m 380.15,358.21 c 0,0.51 -0.41,0.92 -0.92,0.92 h -7 c -0.51,0 -0.92,-0.41 -0.92,-0.92 v -25.68 c 0,-0.51 0.41,-0.92 0.92,-0.92 h 7 c 0.51,0 0.92,0.41 0.92,0.92 z" /><path
       id="path82"
       style="fill:#ffffff;fill-opacity:1;fill-rule:nonzero;stroke:none"
       d="m 311.7302,358.2054 c -2e-4,0.5146 -0.4202,0.9346 -0.9433,0.9367 l -6.9599,-0.0243 c -0.517,0.002 -0.937,-0.4278 -0.9367,-0.9433 l 0.0395,-11.3199 c 2e-4,-0.5146 0.4202,-0.9346 0.9433,-0.9367 l 6.9599,0.0243 c 0.517,-0.002 0.937,0.4278 0.9367,0.9433 z" /></g></svg>