<?xml version="1.0" standalone="no"?>
<!DOCTYPE svg PUBLIC "-//W3C//DTD SVG 20010904//EN"
 "http://www.w3.org/TR/2001/REC-SVG-20010904/DTD/svg10.dtd">
<svg version="1.0" xmlns="http://www.w3.org/2000/svg"
 width="1200.000000pt" height="630.000000pt" viewBox="0 0 1200.000000 630.000000"
 preserveAspectRatio="xMidYMid meet">

<g transform="translate(0.000000,630.000000) scale(0.100000,-0.100000)"
fill="#000000" stroke="none">
<path d="M10400 4439 c-574 -64 -1020 -470 -1146 -1044 -26 -120 -24 -367 5
-502 69 -325 257 -616 517 -802 92 -65 249 -145 354 -181 240 -81 571 -81 810
0 401 137 706 442 835 834 107 327 79 681 -79 993 -179 355 -533 620 -916 687
-116 20 -278 26 -380 15z m-297 -720 c95 -15 202 -65 248 -116 52 -57 64 -101
64 -224 0 -102 -1 -107 -39 -183 -30 -63 -61 -101 -147 -190 -59 -61 -128
-127 -153 -146 -25 -19 -45 -38 -46 -42 0 -4 100 -9 223 -10 l222 -3 -4 -115
c-1 -63 -6 -118 -10 -123 -4 -4 -198 -6 -432 -5 l-424 3 -3 101 c-3 99 -2 102
23 118 76 50 331 264 383 322 87 96 117 155 117 229 0 46 -5 67 -22 91 -48 67
-160 82 -285 38 -40 -14 -80 -28 -89 -30 -12 -4 -23 15 -49 88 -18 51 -35 98
-37 105 -10 25 125 74 267 96 51 8 123 7 193 -4z m1229 -316 l3 -328 68 -3 67
-3 0 -114 0 -114 -67 -3 -68 -3 -5 -135 -5 -135 -130 0 -130 0 -3 131 -3 131
-157 6 c-86 4 -199 7 -249 7 l-93 0 0 112 0 111 48 76 c27 42 118 184 202 316
84 132 159 248 168 258 13 15 36 17 183 17 l169 0 2 -327z"/>
<path d="M11019 3388 c-12 -24 -55 -102 -95 -175 -41 -72 -74 -134 -74 -138 0
-3 46 -4 103 -3 l102 3 3 178 c1 113 -1 177 -8 177 -5 0 -19 -19 -31 -42z"/>
<path d="M250 3120 l0 -580 210 0 210 0 0 443 c0 249 4 435 9 427 7 -12 119
-378 239 -782 l26 -88 176 0 175 0 43 138 c23 75 83 273 134 440 50 166 95
302 100 302 4 0 8 -198 8 -440 l0 -440 205 0 205 0 0 580 0 580 -329 0 -328 0
-40 -132 c-22 -73 -69 -231 -104 -350 -35 -120 -66 -218 -70 -218 -3 0 -48
156 -101 348 l-94 347 -337 3 -337 2 0 -580z"/>
<path d="M2250 3120 l0 -580 225 0 225 0 0 580 0 580 -225 0 -225 0 0 -580z"/>
<path d="M2960 3120 l0 -580 225 0 225 0 0 175 0 175 171 0 c203 0 229 -8 253
-73 8 -23 17 -84 21 -135 3 -51 10 -104 15 -117 l10 -25 250 0 c137 0 250 4
250 9 0 5 -7 14 -15 21 -22 19 -34 72 -49 238 -17 175 -34 219 -96 254 -22 13
-40 26 -40 30 0 3 20 18 44 32 152 89 183 343 59 471 -92 95 -169 105 -815
105 l-508 0 0 -580z m857 267 c60 -32 65 -120 9 -161 -25 -19 -44 -21 -222
-24 l-194 -4 0 107 0 107 188 -4 c153 -3 193 -7 219 -21z"/>
<path d="M5188 3303 c-3 -362 -5 -401 -21 -431 -37 -68 -150 -82 -208 -26 -33
31 -49 78 -49 142 l0 42 -225 0 -225 0 0 -70 c0 -222 100 -362 300 -421 106
-31 399 -39 522 -15 214 43 323 149 348 337 5 41 10 246 10 457 l0 382 -225 0
-224 0 -3 -397z"/>
<path d="M6185 3668 c-7 -18 -32 -76 -55 -128 -23 -52 -84 -192 -135 -310 -51
-118 -139 -320 -194 -448 -56 -128 -101 -235 -101 -237 0 -3 107 -5 239 -5
l238 0 19 53 19 52 251 3 250 2 18 -55 17 -55 244 0 244 0 -205 508 c-113 279
-218 539 -234 577 l-28 70 -286 3 -287 2 -14 -32z m360 -523 c37 -108 65 -198
63 -201 -3 -2 -68 -3 -145 -2 l-139 3 73 195 c40 107 72 196 73 198 2 13 17
-26 75 -193z"/>
<path d="M7322 3123 l3 -578 212 -3 213 -2 2 336 3 336 240 -336 240 -335 253
-1 252 0 0 580 0 580 -215 0 -215 0 0 -331 c0 -190 -4 -328 -9 -325 -5 3 -107
152 -227 331 l-218 325 -268 0 -268 0 2 -577z"/>
</g>
</svg>
