<?xml version="1.0" standalone="no"?>
<!DOCTYPE svg PUBLIC "-//W3C//DTD SVG 20010904//EN"
 "http://www.w3.org/TR/2001/REC-SVG-20010904/DTD/svg10.dtd">
<svg version="1.0" xmlns="http://www.w3.org/2000/svg"
 width="270.000000pt" height="80.000000pt" viewBox="0 0 270.000000 80.000000"
 preserveAspectRatio="xMidYMid meet">

<g transform="translate(0.000000,80.000000) scale(0.100000,-0.100000)"
fill="#000000" stroke="none">
<path d="M231 689 l-51 -29 0 -226 c0 -209 -1 -225 -17 -222 -16 3 -18 22 -21
211 -1 114 -6 207 -10 207 -4 -1 -32 -16 -62 -34 l-55 -32 -3 -160 -2 -161 25
-11 25 -11 2 161 c2 118 6 162 16 166 9 3 12 -36 12 -172 l0 -175 61 -36 c33
-19 62 -35 65 -35 2 0 4 112 4 250 0 239 1 250 20 260 20 11 20 8 20 -265 0
-223 3 -277 14 -281 7 -3 35 8 62 24 l49 28 3 227 c1 125 6 227 10 227 28 0
32 -30 32 -227 l0 -203 63 38 62 39 3 154 c2 136 1 155 -15 166 -9 7 -20 13
-25 13 -4 0 -9 -71 -10 -157 -3 -140 -5 -158 -20 -161 -16 -3 -18 12 -20 174
l-3 178 -55 32 c-30 18 -59 33 -63 34 -4 0 -7 -112 -7 -250 1 -137 -2 -254 -5
-260 -21 -34 -25 12 -25 264 0 222 -3 275 -14 279 -7 3 -36 -8 -65 -24z"/>
<path d="M2636 539 c-32 -28 -35 -35 -38 -95 l-3 -64 -70 90 -70 89 -62 1 -63
0 0 -130 0 -130 40 0 39 0 3 92 3 92 73 -92 72 -92 60 0 60 0 0 135 c0 74 -2
135 -5 135 -2 0 -20 -14 -39 -31z"/>
<path d="M730 430 l0 -130 40 0 40 0 0 62 0 62 28 -27 c25 -24 36 -27 99 -27
87 0 103 15 103 96 0 45 -4 56 -26 73 -24 19 -40 21 -155 21 l-129 0 0 -130z
m218 61 c8 -4 12 -19 10 -32 -3 -22 -8 -24 -75 -27 l-73 -3 0 36 0 35 63 0
c34 0 68 -4 75 -9z"/>
<path d="M1124 551 c3 -5 35 -44 71 -87 58 -70 65 -83 65 -122 l0 -43 38 3
c36 3 37 4 40 49 3 40 12 56 69 125 l66 79 -44 3 c-42 3 -46 1 -89 -49 l-46
-51 -43 51 c-40 47 -46 51 -88 51 -24 0 -42 -4 -39 -9z"/>
<path d="M1560 430 l0 -131 128 3 127 3 0 30 0 30 -87 3 -88 3 0 94 0 95 -40
0 -40 0 0 -130z"/>
<path d="M1921 541 c-44 -44 -40 -180 5 -219 26 -22 33 -23 155 -20 161 4 163
5 168 123 3 79 2 85 -23 109 -24 25 -29 26 -156 26 -115 0 -132 -2 -149 -19z
m233 -57 c17 -16 21 -80 7 -102 -11 -18 -118 -27 -153 -13 -25 9 -28 15 -28
59 0 26 5 53 12 60 18 18 143 16 162 -4z"/>
<path d="M1203 203 c-3 -10 -14 -39 -24 -65 -10 -27 -15 -48 -10 -48 4 0 16
21 26 48 10 26 21 50 24 54 4 5 15 -17 26 -47 10 -30 22 -55 26 -55 13 0 -34
123 -48 128 -7 2 -16 -5 -20 -15z"/>
<path d="M1432 158 l3 -63 44 -3 c53 -4 61 5 61 76 0 71 -18 66 -22 -5 -3 -57
-3 -58 -35 -61 l-33 -3 0 60 c0 36 -4 61 -10 61 -7 0 -10 -24 -8 -62z"/>
<path d="M1700 155 l0 -65 43 0 c54 0 67 13 67 65 0 52 -13 65 -67 65 l-43 0
0 -65z m85 0 l0 -50 -37 -3 -38 -3 0 56 0 56 38 -3 37 -3 0 -50z"/>
<path d="M1970 155 c0 -37 4 -65 10 -65 6 0 10 28 10 65 0 37 -4 65 -10 65 -6
0 -10 -28 -10 -65z"/>
<path d="M2154 207 c-3 -8 -4 -36 -2 -63 l3 -49 45 0 45 0 0 60 0 60 -43 3
c-30 2 -44 -1 -48 -11z m80 -13 c9 -22 7 -67 -3 -82 -5 -8 -21 -12 -37 -10
-26 3 -29 7 -32 42 -2 21 -1 44 2 52 7 19 62 18 70 -2z"/>
</g>
</svg>
